{
	"asset":{
		"generator":"Khronos glTF Blender I/O v3.6.27",
		"version":"2.0"
	},
	"scene":0,
	"scenes":[
		{
			"name":"Scene",
			"nodes":[
				0,
				1
			]
		}
	],
	"nodes":[
		{
			"mesh":0,
			"name":"nut"
		},
		{
			"mesh":1,
			"name":"bolt"
		}
	],
	"materials":[
		{
			"doubleSided":true,
			"name":"metalMat",
			"pbrMetallicRoughness":{}
		}
	],
	"meshes":[
		{
			"name":"Nut.001",
			"primitives":[
				{
					"attributes":{
						"POSITION":0,
						"NORMAL":1
					},
					"indices":2,
					"material":0
				}
			]
		},
		{
			"name":"Bolt.001",
			"primitives":[
				{
					"attributes":{
						"POSITION":3,
						"NORMAL":4
					},
					"indices":5,
					"material":0
				}
			]
		}
	],
	"accessors":[
		{
			"bufferView":0,
			"componentType":5126,
			"count":2588,
			"max":[
				-0.0010985471308231354,
				0.01217688713222742,
				0.01101718470454216
			],
			"min":[
				-0.02654164470732212,
				0,
				-0.011017183773219585
			],
			"type":"VEC3"
		},
		{
			"bufferView":1,
			"componentType":5126,
			"count":2588,
			"type":"VEC3"
		},
		{
			"bufferView":2,
			"componentType":5123,
			"count":8160,
			"type":"SCALAR"
		},
		{
			"bufferView":3,
			"componentType":5126,
			"count":5915,
			"max":[
				0.02143525332212448,
				0.08001954853534698,
				0.01101718470454216
			],
			"min":[
				-0.004007846117019653,
				0,
				-0.011017183773219585
			],
			"type":"VEC3"
		},
		{
			"bufferView":4,
			"componentType":5126,
			"count":5915,
			"type":"VEC3"
		},
		{
			"bufferView":5,
			"componentType":5123,
			"count":18582,
			"type":"SCALAR"
		}
	],
	"bufferViews":[
		{
			"buffer":0,
			"byteLength":31056,
			"byteOffset":0,
			"target":34962
		},
		{
			"buffer":0,
			"byteLength":31056,
			"byteOffset":31056,
			"target":34962
		},
		{
			"buffer":0,
			"byteLength":16320,
			"byteOffset":62112,
			"target":34963
		},
		{
			"buffer":0,
			"byteLength":70980,
			"byteOffset":78432,
			"target":34962
		},
		{
			"buffer":0,
			"byteLength":70980,
			"byteOffset":149412,
			"target":34962
		},
		{
			"buffer":0,
			"byteLength":37164,
			"byteOffset":220392,
			"target":34963
		}
	],
	"buffers":[
		{
			"byteLength":257556,
			"uri":"scene.bin"
		}
	]
}
