{
	"asset":{
		"generator":"Khronos glTF Blender I/O v3.6.27",
		"version":"2.0"
	},
	"scene":0,
	"scenes":[
		{
			"name":"Scene",
			"nodes":[
				0,
				1,
				2,
				6,
				10
			]
		}
	],
	"nodes":[
		{
			"mesh":0,
			"name":"Cylinder",
			"scale":[
				1.5,
				4.020578861236572,
				1.5
			],
			"translation":[
				0,
				-3.854804515838623,
				0
			]
		},
		{
			"mesh":1,
			"name":"Plane",
			"scale":[
				2,
				2,
				2
			],
			"translation":[
				0,
				0.021574974060058594,
				0
			]
		},
		{
			"mesh":2,
			"name":"Cylinder.003",
			"scale":[
				2,
				4.100578784942627,
				2
			],
			"translation":[
				0,
				-4.0390625,
				0
			]
		},
		{
			"mesh":3,
			"name":"Cylinder.001",
			"rotation":[
				0.3210197985172272,
				0.3210197985172272,
				0.6300367712974548,
				0.6300367712974548
			],
			"scale":[
				0.03710031509399414,
				0.6928996443748474,
				0.03710031136870384
			],
			"translation":[
				0.4161815643310547,
				0.07403858006000519,
				-0.5936880111694336
			]
		},
		{
			"mesh":4,
			"name":"Plane.001",
			"scale":[
				1,
				1,
				0.20000000298023224
			],
			"translation":[
				1.1974766254425049,
				-0.1988094300031662,
				-1.755768060684204
			]
		},
		{
			"mesh":5,
			"name":"Sphere",
			"scale":[
				0.11412864923477173,
				0.11412864923477173,
				0.11412864923477173
			],
			"translation":[
				0.013272523880004883,
				0.08099063485860825,
				-0.027111738920211792
			]
		},
		{
			"children":[
				3,
				4,
				5
			],
			"name":"Hint_1",
			"translation":[
				2.5509557723999023,
				-0.014187267050147057,
				-0.04050764441490173
			]
		},
		{
			"mesh":6,
			"name":"Cylinder.002",
			"rotation":[
				0.3210197985172272,
				0.3210197985172272,
				0.6300367712974548,
				0.6300367712974548
			],
			"scale":[
				0.03710031509399414,
				0.6928996443748474,
				0.03710031136870384
			],
			"translation":[
				0.4161815047264099,
				0.07403858006000519,
				-0.5936880111694336
			]
		},
		{
			"mesh":7,
			"name":"Plane.002",
			"scale":[
				1,
				1,
				0.20000000298023224
			],
			"translation":[
				-0.25946786999702454,
				-0.1988094300031662,
				-1.7557681798934937
			]
		},
		{
			"mesh":8,
			"name":"Sphere.001",
			"scale":[
				0.11412864923477173,
				0.11412864923477173,
				0.11412864923477173
			],
			"translation":[
				0.013272464275360107,
				0.08099063485860825,
				-0.02711164951324463
			]
		},
		{
			"children":[
				7,
				8,
				9
			],
			"name":"Hint_1.002",
			"translation":[
				0.18998873233795166,
				-0.014187267050147057,
				-1.233467698097229
			]
		}
	],
	"animations":[
		{
			"channels":[
				{
					"sampler":0,
					"target":{
						"node":0,
						"path":"translation"
					}
				},
				{
					"sampler":1,
					"target":{
						"node":0,
						"path":"rotation"
					}
				},
				{
					"sampler":2,
					"target":{
						"node":0,
						"path":"scale"
					}
				}
			],
			"name":"CylinderAction",
			"samplers":[
				{
					"input":30,
					"interpolation":"LINEAR",
					"output":31
				},
				{
					"input":30,
					"interpolation":"LINEAR",
					"output":32
				},
				{
					"input":30,
					"interpolation":"LINEAR",
					"output":33
				}
			]
		},
		{
			"channels":[
				{
					"sampler":0,
					"target":{
						"node":6,
						"path":"translation"
					}
				},
				{
					"sampler":1,
					"target":{
						"node":6,
						"path":"rotation"
					}
				},
				{
					"sampler":2,
					"target":{
						"node":6,
						"path":"scale"
					}
				}
			],
			"name":"EmptyAction",
			"samplers":[
				{
					"input":34,
					"interpolation":"LINEAR",
					"output":35
				},
				{
					"input":34,
					"interpolation":"LINEAR",
					"output":36
				},
				{
					"input":34,
					"interpolation":"LINEAR",
					"output":37
				}
			]
		},
		{
			"channels":[
				{
					"sampler":0,
					"target":{
						"node":3,
						"path":"translation"
					}
				},
				{
					"sampler":1,
					"target":{
						"node":3,
						"path":"rotation"
					}
				},
				{
					"sampler":2,
					"target":{
						"node":3,
						"path":"scale"
					}
				}
			],
			"name":"Cylinder.001Action.002",
			"samplers":[
				{
					"input":34,
					"interpolation":"LINEAR",
					"output":38
				},
				{
					"input":34,
					"interpolation":"LINEAR",
					"output":39
				},
				{
					"input":34,
					"interpolation":"LINEAR",
					"output":40
				}
			]
		},
		{
			"channels":[
				{
					"sampler":0,
					"target":{
						"node":4,
						"path":"translation"
					}
				},
				{
					"sampler":1,
					"target":{
						"node":4,
						"path":"rotation"
					}
				},
				{
					"sampler":2,
					"target":{
						"node":4,
						"path":"scale"
					}
				}
			],
			"name":"Plane.001Action",
			"samplers":[
				{
					"input":34,
					"interpolation":"LINEAR",
					"output":41
				},
				{
					"input":34,
					"interpolation":"LINEAR",
					"output":42
				},
				{
					"input":34,
					"interpolation":"LINEAR",
					"output":43
				}
			]
		},
		{
			"channels":[
				{
					"sampler":0,
					"target":{
						"node":5,
						"path":"translation"
					}
				},
				{
					"sampler":1,
					"target":{
						"node":5,
						"path":"rotation"
					}
				},
				{
					"sampler":2,
					"target":{
						"node":5,
						"path":"scale"
					}
				}
			],
			"name":"SphereAction",
			"samplers":[
				{
					"input":34,
					"interpolation":"LINEAR",
					"output":44
				},
				{
					"input":34,
					"interpolation":"LINEAR",
					"output":45
				},
				{
					"input":34,
					"interpolation":"LINEAR",
					"output":46
				}
			]
		},
		{
			"channels":[
				{
					"sampler":0,
					"target":{
						"node":10,
						"path":"translation"
					}
				},
				{
					"sampler":1,
					"target":{
						"node":10,
						"path":"rotation"
					}
				},
				{
					"sampler":2,
					"target":{
						"node":10,
						"path":"scale"
					}
				}
			],
			"name":"EmptyAction.003",
			"samplers":[
				{
					"input":34,
					"interpolation":"LINEAR",
					"output":47
				},
				{
					"input":34,
					"interpolation":"LINEAR",
					"output":48
				},
				{
					"input":34,
					"interpolation":"LINEAR",
					"output":49
				}
			]
		},
		{
			"channels":[
				{
					"sampler":0,
					"target":{
						"node":7,
						"path":"translation"
					}
				},
				{
					"sampler":1,
					"target":{
						"node":7,
						"path":"rotation"
					}
				},
				{
					"sampler":2,
					"target":{
						"node":7,
						"path":"scale"
					}
				}
			],
			"name":"Cylinder.001Action.003",
			"samplers":[
				{
					"input":34,
					"interpolation":"LINEAR",
					"output":50
				},
				{
					"input":34,
					"interpolation":"LINEAR",
					"output":51
				},
				{
					"input":34,
					"interpolation":"LINEAR",
					"output":52
				}
			]
		},
		{
			"channels":[
				{
					"sampler":0,
					"target":{
						"node":8,
						"path":"translation"
					}
				},
				{
					"sampler":1,
					"target":{
						"node":8,
						"path":"rotation"
					}
				},
				{
					"sampler":2,
					"target":{
						"node":8,
						"path":"scale"
					}
				}
			],
			"name":"Plane.001Action.001",
			"samplers":[
				{
					"input":34,
					"interpolation":"LINEAR",
					"output":53
				},
				{
					"input":34,
					"interpolation":"LINEAR",
					"output":54
				},
				{
					"input":34,
					"interpolation":"LINEAR",
					"output":55
				}
			]
		},
		{
			"channels":[
				{
					"sampler":0,
					"target":{
						"node":9,
						"path":"translation"
					}
				},
				{
					"sampler":1,
					"target":{
						"node":9,
						"path":"rotation"
					}
				},
				{
					"sampler":2,
					"target":{
						"node":9,
						"path":"scale"
					}
				}
			],
			"name":"SphereAction.001",
			"samplers":[
				{
					"input":34,
					"interpolation":"LINEAR",
					"output":56
				},
				{
					"input":34,
					"interpolation":"LINEAR",
					"output":57
				},
				{
					"input":34,
					"interpolation":"LINEAR",
					"output":58
				}
			]
		}
	],
	"materials":[
		{
			"alphaMode":"BLEND",
			"doubleSided":true,
			"name":"Material.004",
			"pbrMetallicRoughness":{
				"baseColorFactor":[
					0.26423341035842896,
					0.44395989179611206,
					0.8000000715255737,
					0.8083333373069763
				],
				"metallicFactor":0,
				"roughnessFactor":0.5
			}
		},
		{
			"doubleSided":true,
			"name":"Material.001",
			"pbrMetallicRoughness":{
				"baseColorTexture":{
					"index":0
				},
				"metallicFactor":0,
				"roughnessFactor":0.5
			}
		},
		{
			"alphaMode":"BLEND",
			"doubleSided":true,
			"name":"Material.006",
			"pbrMetallicRoughness":{
				"baseColorFactor":[
					0.26423341035842896,
					0.44395989179611206,
					0.8000000715255737,
					0.25
				],
				"metallicFactor":0,
				"roughnessFactor":0.5
			}
		},
		{
			"doubleSided":true,
			"name":"Material.007",
			"pbrMetallicRoughness":{
				"baseColorTexture":{
					"index":1
				},
				"metallicFactor":0,
				"roughnessFactor":0.5
			}
		},
		{
			"doubleSided":true,
			"name":"Material.009",
			"pbrMetallicRoughness":{
				"baseColorFactor":[
					0,
					0,
					0,
					1
				],
				"metallicFactor":0,
				"roughnessFactor":0.5
			}
		},
		{
			"doubleSided":true,
			"name":"Material.008",
			"pbrMetallicRoughness":{
				"baseColorTexture":{
					"index":2
				},
				"metallicFactor":0,
				"roughnessFactor":0.5
			}
		}
	],
	"meshes":[
		{
			"name":"Cylinder",
			"primitives":[
				{
					"attributes":{
						"POSITION":0,
						"NORMAL":1,
						"TEXCOORD_0":2
					},
					"indices":3,
					"material":0
				}
			]
		},
		{
			"name":"Plane",
			"primitives":[
				{
					"attributes":{
						"POSITION":4,
						"NORMAL":5,
						"TEXCOORD_0":6
					},
					"indices":7,
					"material":1
				}
			]
		},
		{
			"name":"Cylinder.005",
			"primitives":[
				{
					"attributes":{
						"POSITION":8,
						"NORMAL":9,
						"TEXCOORD_0":10
					},
					"indices":3,
					"material":2
				}
			]
		},
		{
			"name":"Cylinder.006",
			"primitives":[
				{
					"attributes":{
						"POSITION":11,
						"NORMAL":12,
						"TEXCOORD_0":13
					},
					"indices":3
				}
			]
		},
		{
			"name":"Plane.001",
			"primitives":[
				{
					"attributes":{
						"POSITION":14,
						"NORMAL":15,
						"TEXCOORD_0":16
					},
					"indices":7,
					"material":3
				}
			]
		},
		{
			"name":"Sphere.002",
			"primitives":[
				{
					"attributes":{
						"POSITION":17,
						"NORMAL":18,
						"TEXCOORD_0":19
					},
					"indices":20
				}
			]
		},
		{
			"name":"Cylinder.007",
			"primitives":[
				{
					"attributes":{
						"POSITION":21,
						"NORMAL":22,
						"TEXCOORD_0":23
					},
					"indices":3,
					"material":4
				}
			]
		},
		{
			"name":"Plane.002",
			"primitives":[
				{
					"attributes":{
						"POSITION":24,
						"NORMAL":25,
						"TEXCOORD_0":26
					},
					"indices":7,
					"material":5
				}
			]
		},
		{
			"name":"Sphere.003",
			"primitives":[
				{
					"attributes":{
						"POSITION":27,
						"NORMAL":28,
						"TEXCOORD_0":29
					},
					"indices":20,
					"material":4
				}
			]
		}
	],
	"textures":[
		{
			"sampler":0,
			"source":0
		},
		{
			"sampler":0,
			"source":1
		},
		{
			"sampler":0,
			"source":1
		}
	],
	"images":[
		{
			"mimeType":"image/png",
			"name":"Magnetic_field_of_an_idealized_quadrupole_with_forces",
			"uri":"Magnetic_field_of_an_idealized_quadrupole_with_forces.png"
		},
		{
			"mimeType":"image/png",
			"name":"hint",
			"uri":"hint.png"
		}
	],
	"accessors":[
		{
			"bufferView":0,
			"componentType":5126,
			"count":192,
			"max":[
				1,
				1,
				1
			],
			"min":[
				-1,
				-1,
				-1
			],
			"type":"VEC3"
		},
		{
			"bufferView":1,
			"componentType":5126,
			"count":192,
			"type":"VEC3"
		},
		{
			"bufferView":2,
			"componentType":5126,
			"count":192,
			"type":"VEC2"
		},
		{
			"bufferView":3,
			"componentType":5123,
			"count":372,
			"type":"SCALAR"
		},
		{
			"bufferView":4,
			"componentType":5126,
			"count":4,
			"max":[
				1,
				0,
				1
			],
			"min":[
				-1,
				0,
				-1
			],
			"type":"VEC3"
		},
		{
			"bufferView":5,
			"componentType":5126,
			"count":4,
			"type":"VEC3"
		},
		{
			"bufferView":6,
			"componentType":5126,
			"count":4,
			"type":"VEC2"
		},
		{
			"bufferView":7,
			"componentType":5123,
			"count":6,
			"type":"SCALAR"
		},
		{
			"bufferView":8,
			"componentType":5126,
			"count":192,
			"max":[
				1,
				1,
				1
			],
			"min":[
				-1,
				-1,
				-1
			],
			"type":"VEC3"
		},
		{
			"bufferView":9,
			"componentType":5126,
			"count":192,
			"type":"VEC3"
		},
		{
			"bufferView":10,
			"componentType":5126,
			"count":192,
			"type":"VEC2"
		},
		{
			"bufferView":11,
			"componentType":5126,
			"count":192,
			"max":[
				1,
				1,
				1
			],
			"min":[
				-1,
				-1,
				-1
			],
			"type":"VEC3"
		},
		{
			"bufferView":12,
			"componentType":5126,
			"count":192,
			"type":"VEC3"
		},
		{
			"bufferView":13,
			"componentType":5126,
			"count":192,
			"type":"VEC2"
		},
		{
			"bufferView":14,
			"componentType":5126,
			"count":4,
			"max":[
				1.2403240203857422,
				0.31315988302230835,
				4.615507125854492
			],
			"min":[
				-0.7596760392189026,
				0.31315988302230835,
				2.615507125854492
			],
			"type":"VEC3"
		},
		{
			"bufferView":15,
			"componentType":5126,
			"count":4,
			"type":"VEC3"
		},
		{
			"bufferView":16,
			"componentType":5126,
			"count":4,
			"type":"VEC2"
		},
		{
			"bufferView":17,
			"componentType":5126,
			"count":1984,
			"max":[
				0.9999997019767761,
				1,
				0.9999993443489075
			],
			"min":[
				-0.9999990463256836,
				-1,
				-1
			],
			"type":"VEC3"
		},
		{
			"bufferView":18,
			"componentType":5126,
			"count":1984,
			"type":"VEC3"
		},
		{
			"bufferView":19,
			"componentType":5126,
			"count":1984,
			"type":"VEC2"
		},
		{
			"bufferView":20,
			"componentType":5123,
			"count":2880,
			"type":"SCALAR"
		},
		{
			"bufferView":21,
			"componentType":5126,
			"count":192,
			"max":[
				1,
				1,
				1
			],
			"min":[
				-1,
				-1,
				-1
			],
			"type":"VEC3"
		},
		{
			"bufferView":22,
			"componentType":5126,
			"count":192,
			"type":"VEC3"
		},
		{
			"bufferView":23,
			"componentType":5126,
			"count":192,
			"type":"VEC2"
		},
		{
			"bufferView":24,
			"componentType":5126,
			"count":4,
			"max":[
				1.2403240203857422,
				0.31315988302230835,
				4.615507125854492
			],
			"min":[
				-0.7596760392189026,
				0.31315988302230835,
				2.615507125854492
			],
			"type":"VEC3"
		},
		{
			"bufferView":25,
			"componentType":5126,
			"count":4,
			"type":"VEC3"
		},
		{
			"bufferView":26,
			"componentType":5126,
			"count":4,
			"type":"VEC2"
		},
		{
			"bufferView":27,
			"componentType":5126,
			"count":1984,
			"max":[
				0.9999997019767761,
				1,
				0.9999993443489075
			],
			"min":[
				-0.9999990463256836,
				-1,
				-1
			],
			"type":"VEC3"
		},
		{
			"bufferView":28,
			"componentType":5126,
			"count":1984,
			"type":"VEC3"
		},
		{
			"bufferView":29,
			"componentType":5126,
			"count":1984,
			"type":"VEC2"
		},
		{
			"bufferView":30,
			"componentType":5126,
			"count":30,
			"max":[
				1.25
			],
			"min":[
				0.041666666666666664
			],
			"type":"SCALAR"
		},
		{
			"bufferView":31,
			"componentType":5126,
			"count":30,
			"type":"VEC3"
		},
		{
			"bufferView":32,
			"componentType":5126,
			"count":30,
			"type":"VEC4"
		},
		{
			"bufferView":33,
			"componentType":5126,
			"count":30,
			"type":"VEC3"
		},
		{
			"bufferView":34,
			"componentType":5126,
			"count":1,
			"max":[
				0
			],
			"min":[
				0
			],
			"type":"SCALAR"
		},
		{
			"bufferView":35,
			"componentType":5126,
			"count":1,
			"type":"VEC3"
		},
		{
			"bufferView":36,
			"componentType":5126,
			"count":1,
			"type":"VEC4"
		},
		{
			"bufferView":37,
			"componentType":5126,
			"count":1,
			"type":"VEC3"
		},
		{
			"bufferView":38,
			"componentType":5126,
			"count":1,
			"type":"VEC3"
		},
		{
			"bufferView":39,
			"componentType":5126,
			"count":1,
			"type":"VEC4"
		},
		{
			"bufferView":40,
			"componentType":5126,
			"count":1,
			"type":"VEC3"
		},
		{
			"bufferView":41,
			"componentType":5126,
			"count":1,
			"type":"VEC3"
		},
		{
			"bufferView":42,
			"componentType":5126,
			"count":1,
			"type":"VEC4"
		},
		{
			"bufferView":43,
			"componentType":5126,
			"count":1,
			"type":"VEC3"
		},
		{
			"bufferView":44,
			"componentType":5126,
			"count":1,
			"type":"VEC3"
		},
		{
			"bufferView":45,
			"componentType":5126,
			"count":1,
			"type":"VEC4"
		},
		{
			"bufferView":46,
			"componentType":5126,
			"count":1,
			"type":"VEC3"
		},
		{
			"bufferView":47,
			"componentType":5126,
			"count":1,
			"type":"VEC3"
		},
		{
			"bufferView":48,
			"componentType":5126,
			"count":1,
			"type":"VEC4"
		},
		{
			"bufferView":49,
			"componentType":5126,
			"count":1,
			"type":"VEC3"
		},
		{
			"bufferView":50,
			"componentType":5126,
			"count":1,
			"type":"VEC3"
		},
		{
			"bufferView":51,
			"componentType":5126,
			"count":1,
			"type":"VEC4"
		},
		{
			"bufferView":52,
			"componentType":5126,
			"count":1,
			"type":"VEC3"
		},
		{
			"bufferView":53,
			"componentType":5126,
			"count":1,
			"type":"VEC3"
		},
		{
			"bufferView":54,
			"componentType":5126,
			"count":1,
			"type":"VEC4"
		},
		{
			"bufferView":55,
			"componentType":5126,
			"count":1,
			"type":"VEC3"
		},
		{
			"bufferView":56,
			"componentType":5126,
			"count":1,
			"type":"VEC3"
		},
		{
			"bufferView":57,
			"componentType":5126,
			"count":1,
			"type":"VEC4"
		},
		{
			"bufferView":58,
			"componentType":5126,
			"count":1,
			"type":"VEC3"
		}
	],
	"bufferViews":[
		{
			"buffer":0,
			"byteLength":2304,
			"byteOffset":0,
			"target":34962
		},
		{
			"buffer":0,
			"byteLength":2304,
			"byteOffset":2304,
			"target":34962
		},
		{
			"buffer":0,
			"byteLength":1536,
			"byteOffset":4608,
			"target":34962
		},
		{
			"buffer":0,
			"byteLength":744,
			"byteOffset":6144,
			"target":34963
		},
		{
			"buffer":0,
			"byteLength":48,
			"byteOffset":6888,
			"target":34962
		},
		{
			"buffer":0,
			"byteLength":48,
			"byteOffset":6936,
			"target":34962
		},
		{
			"buffer":0,
			"byteLength":32,
			"byteOffset":6984,
			"target":34962
		},
		{
			"buffer":0,
			"byteLength":12,
			"byteOffset":7016,
			"target":34963
		},
		{
			"buffer":0,
			"byteLength":2304,
			"byteOffset":7028,
			"target":34962
		},
		{
			"buffer":0,
			"byteLength":2304,
			"byteOffset":9332,
			"target":34962
		},
		{
			"buffer":0,
			"byteLength":1536,
			"byteOffset":11636,
			"target":34962
		},
		{
			"buffer":0,
			"byteLength":2304,
			"byteOffset":13172,
			"target":34962
		},
		{
			"buffer":0,
			"byteLength":2304,
			"byteOffset":15476,
			"target":34962
		},
		{
			"buffer":0,
			"byteLength":1536,
			"byteOffset":17780,
			"target":34962
		},
		{
			"buffer":0,
			"byteLength":48,
			"byteOffset":19316,
			"target":34962
		},
		{
			"buffer":0,
			"byteLength":48,
			"byteOffset":19364,
			"target":34962
		},
		{
			"buffer":0,
			"byteLength":32,
			"byteOffset":19412,
			"target":34962
		},
		{
			"buffer":0,
			"byteLength":23808,
			"byteOffset":19444,
			"target":34962
		},
		{
			"buffer":0,
			"byteLength":23808,
			"byteOffset":43252,
			"target":34962
		},
		{
			"buffer":0,
			"byteLength":15872,
			"byteOffset":67060,
			"target":34962
		},
		{
			"buffer":0,
			"byteLength":5760,
			"byteOffset":82932,
			"target":34963
		},
		{
			"buffer":0,
			"byteLength":2304,
			"byteOffset":88692,
			"target":34962
		},
		{
			"buffer":0,
			"byteLength":2304,
			"byteOffset":90996,
			"target":34962
		},
		{
			"buffer":0,
			"byteLength":1536,
			"byteOffset":93300,
			"target":34962
		},
		{
			"buffer":0,
			"byteLength":48,
			"byteOffset":94836,
			"target":34962
		},
		{
			"buffer":0,
			"byteLength":48,
			"byteOffset":94884,
			"target":34962
		},
		{
			"buffer":0,
			"byteLength":32,
			"byteOffset":94932,
			"target":34962
		},
		{
			"buffer":0,
			"byteLength":23808,
			"byteOffset":94964,
			"target":34962
		},
		{
			"buffer":0,
			"byteLength":23808,
			"byteOffset":118772,
			"target":34962
		},
		{
			"buffer":0,
			"byteLength":15872,
			"byteOffset":142580,
			"target":34962
		},
		{
			"buffer":0,
			"byteLength":120,
			"byteOffset":158452
		},
		{
			"buffer":0,
			"byteLength":360,
			"byteOffset":158572
		},
		{
			"buffer":0,
			"byteLength":480,
			"byteOffset":158932
		},
		{
			"buffer":0,
			"byteLength":360,
			"byteOffset":159412
		},
		{
			"buffer":0,
			"byteLength":4,
			"byteOffset":159772
		},
		{
			"buffer":0,
			"byteLength":12,
			"byteOffset":159776
		},
		{
			"buffer":0,
			"byteLength":16,
			"byteOffset":159788
		},
		{
			"buffer":0,
			"byteLength":12,
			"byteOffset":159804
		},
		{
			"buffer":0,
			"byteLength":12,
			"byteOffset":159816
		},
		{
			"buffer":0,
			"byteLength":16,
			"byteOffset":159828
		},
		{
			"buffer":0,
			"byteLength":12,
			"byteOffset":159844
		},
		{
			"buffer":0,
			"byteLength":12,
			"byteOffset":159856
		},
		{
			"buffer":0,
			"byteLength":16,
			"byteOffset":159868
		},
		{
			"buffer":0,
			"byteLength":12,
			"byteOffset":159884
		},
		{
			"buffer":0,
			"byteLength":12,
			"byteOffset":159896
		},
		{
			"buffer":0,
			"byteLength":16,
			"byteOffset":159908
		},
		{
			"buffer":0,
			"byteLength":12,
			"byteOffset":159924
		},
		{
			"buffer":0,
			"byteLength":12,
			"byteOffset":159936
		},
		{
			"buffer":0,
			"byteLength":16,
			"byteOffset":159948
		},
		{
			"buffer":0,
			"byteLength":12,
			"byteOffset":159964
		},
		{
			"buffer":0,
			"byteLength":12,
			"byteOffset":159976
		},
		{
			"buffer":0,
			"byteLength":16,
			"byteOffset":159988
		},
		{
			"buffer":0,
			"byteLength":12,
			"byteOffset":160004
		},
		{
			"buffer":0,
			"byteLength":12,
			"byteOffset":160016
		},
		{
			"buffer":0,
			"byteLength":16,
			"byteOffset":160028
		},
		{
			"buffer":0,
			"byteLength":12,
			"byteOffset":160044
		},
		{
			"buffer":0,
			"byteLength":12,
			"byteOffset":160056
		},
		{
			"buffer":0,
			"byteLength":16,
			"byteOffset":160068
		},
		{
			"buffer":0,
			"byteLength":12,
			"byteOffset":160084
		}
	],
	"samplers":[
		{
			"magFilter":9729,
			"minFilter":9987
		}
	],
	"buffers":[
		{
			"byteLength":160096,
			"uri":"scene.bin"
		}
	]
}
